<svg width="1919" height="215" viewBox="0 0 1919 215" fill="none" xmlns="http://www.w3.org/2000/svg">
<path d="M15.1201 15.2344H143.977V42.7001H46.8829V91.7337H127.3V117.65H46.8829V198.712H15.1201V15.2344Z" fill="#FAFAFA"/>
<path d="M152.101 130.22V15.2344H183.863V127.895C183.863 163.541 197.703 175.896 227.919 175.896C258.134 175.896 271.974 164.1 271.974 128.154V15.2344H303.737V129.66C303.737 174.82 280.441 203.319 227.661 203.319C174.88 203.319 152.101 175.078 152.101 130.177V130.22Z" fill="#FAFAFA"/>
<path d="M311.172 15.2344H347.792L436.719 154.07H436.934V15.2344H467.192V198.712H432.851L341.903 56.5621H341.645V198.712H311.172V15.2344Z" fill="#FAFAFA"/>
<path d="M538.927 15.2384H474.886V198.673H536.606C586.808 198.673 630.863 171.466 630.863 106.547C630.863 41.6278 586.55 15.1953 538.884 15.1953L538.927 15.2384ZM541.721 170.992H506.606V42.9624H541.979C579.372 42.9624 598.842 62.4639 598.842 106.59C598.842 150.716 578.856 170.992 541.721 170.992Z" fill="#FAFAFA"/>
<path d="M720.307 15.2344H680.85L612.468 198.669H644.488L661.122 152.993H739.261L755.637 198.669H788.689L720.307 15.2344ZM671.094 125.829L700.278 45.2831H700.535L729.462 125.829H671.051H671.094Z" fill="#FAFAFA"/>
<path d="M793.288 15.2344H838.117L891.414 164.057L944.194 15.2344H988.765L989.539 198.669H959.065V83.2099C959.065 76.2789 959.323 69.0896 959.581 52.171H959.323L906.027 198.669H875.811L822.773 52.9459H822.515C823.031 69.3479 823.289 76.7955 823.289 83.7265V198.669H792.558L793.331 15.2344H793.288Z" fill="#FAFAFA"/>
<path d="M996.975 15.2344H1128.37V42.7001H1028.74V91.7337H1113.5V117.65H1028.74V171.246H1128.37V198.712H996.975V15.2344Z" fill="#FAFAFA"/>
<path d="M1135.8 15.2344H1172.42L1261.31 154.07H1261.56V15.2344H1291.82V198.712H1257.48L1166.53 56.5621H1166.28V198.712H1135.8V15.2344Z" fill="#FAFAFA"/>
<path d="M1359.43 43.9916H1299V15.2344H1451.41V43.9916H1390.94V198.712H1359.43V43.9916Z" fill="#FAFAFA"/>
<path d="M1518.76 15.2344H1479.31L1410.92 198.669H1442.94L1459.58 152.993H1537.72L1554.09 198.669H1587.14L1518.76 15.2344ZM1469.59 125.829L1498.78 45.2831H1499.03L1527.96 125.829H1469.55H1469.59Z" fill="#FAFAFA"/>
<path d="M1593.85 15.2344H1625.61V170.472H1711.66V198.712H1593.85V15.2344Z" fill="#FAFAFA"/>
<path d="M1643.5 80.5429C1643.5 39.2151 1670.41 12.0508 1710.85 12.0508C1743.39 12.0508 1764.4 29.4859 1768.75 60.2664H1740.29C1737.2 44.8547 1726.45 36.4169 1709.82 36.4169C1686.26 36.4169 1673.97 52.3453 1673.97 80.8012C1673.97 109.257 1686.26 125.444 1709.3 125.444C1726.45 125.444 1737.24 115.714 1740.55 99.0112H1769.26C1765.44 129.533 1741.84 150.068 1708.53 150.068C1670.36 150.068 1643.46 121.828 1643.46 80.5429H1643.5Z" fill="#FAFAFA"/>
<path d="M1840.78 12.0508C1801.33 12.0508 1773.65 40.0331 1773.65 81.0594C1773.65 122.086 1801.33 150.068 1840.52 150.068C1879.72 150.068 1906.89 122.086 1906.89 81.3178C1906.89 40.5497 1879.46 12.0508 1840.78 12.0508ZM1841.04 125.702C1817.49 125.702 1804.16 111.065 1804.16 80.8012C1804.16 50.5372 1817.49 36.4169 1840.78 36.4169C1864.08 36.4169 1876.63 51.0538 1876.63 81.0594C1876.63 111.065 1863.82 125.702 1841.04 125.702Z" fill="#FAFAFA"/>
</svg>
